HIERARCHY
ROOT Hips
{
	OFFSET 0.000000 0.000000 0.000000
	CHANNELS 6 Xposition Yposition Zposition Yrotation Xrotation Zrotation
	JOINT Chest
	{
		OFFSET 0.000000 -0.009281 11.569106
		CHANNELS 3 Yrotation Xrotation Zrotation
		JOINT Chest2
		{
			OFFSET -0.000000 0.016865 9.269641
			CHANNELS 3 Yrotation Xrotation Zrotation
			JOINT Chest3
			{
				OFFSET -0.000000 0.000001 8.374491
				CHANNELS 3 Yrotation Xrotation Zrotation
				JOINT Chest4
				{
					OFFSET -0.000000 0.000001 8.374493
					CHANNELS 3 Yrotation Xrotation Zrotation
					JOINT Neck
					{
						OFFSET -0.000000 0.000002 12.152554
						CHANNELS 3 Yrotation Xrotation Zrotation
						JOINT Head
						{
							OFFSET -0.000000 0.040101 7.802319
							CHANNELS 3 Yrotation Xrotation Zrotation
							End Site
							{
								OFFSET -0.000000 0.020947 14.853096
							}
						}
					}
					JOINT RightCollar
					{
						OFFSET 2.894404 0.000001 6.791374
						CHANNELS 3 Yrotation Xrotation Zrotation
						JOINT RightShoulder
						{
							OFFSET 13.574684 0.000001 0.000000
							CHANNELS 3 Yrotation Xrotation Zrotation
							JOINT RightElbow
							{
								OFFSET 23.923903 0.000002 0.000000
								CHANNELS 3 Yrotation Xrotation Zrotation
								JOINT RightWrist
								{
									OFFSET 19.846718 0.012767 0.000000
									CHANNELS 3 Yrotation Xrotation Zrotation
									End Site
									{
										OFFSET 14.973145 0.000001 0.000000
									}
								}
							}
						}
					}
					JOINT LeftCollar
					{
						OFFSET -2.894404 0.000001 6.791374
						CHANNELS 3 Yrotation Xrotation Zrotation
						JOINT LeftShoulder
						{
							OFFSET -13.574684 -0.000001 0.000000
							CHANNELS 3 Yrotation Xrotation Zrotation
							JOINT LeftElbow
							{
								OFFSET -23.923903 -0.000002 0.000000
								CHANNELS 3 Yrotation Xrotation Zrotation
								JOINT LeftWrist
								{
									OFFSET -19.846718 0.012763 0.000000
									CHANNELS 3 Yrotation Xrotation Zrotation
									End Site
									{
										OFFSET -14.973145 -0.000001 0.000000
									}
								}
							}
						}
					}
				}
			}
		}
	}
	JOINT RightHip
	{
		OFFSET 9.469263 0.004643 0.045487
		CHANNELS 3 Yrotation Xrotation Zrotation
		JOINT RightKnee
		{
			OFFSET 0.000000 0.002661 -40.478676
			CHANNELS 3 Yrotation Xrotation Zrotation
			JOINT RightAnkle
			{
				OFFSET 0.000000 0.049106 -35.224068
				CHANNELS 3 Yrotation Xrotation Zrotation
				JOINT RightToe
				{
					OFFSET -0.000001 12.539529 -6.151390
					CHANNELS 3 Yrotation Xrotation Zrotation
					End Site
					{
						OFFSET -0.000001 5.044994 -1.291870
					}
				}
			}
		}
	}
	JOINT LeftHip
	{
		OFFSET -9.469263 0.004641 0.045487
		CHANNELS 3 Yrotation Xrotation Zrotation
		JOINT LeftKnee
		{
			OFFSET 0.000000 0.002661 -40.478676
			CHANNELS 3 Yrotation Xrotation Zrotation
			JOINT LeftAnkle
			{
				OFFSET 0.000000 0.049106 -35.224068
				CHANNELS 3 Yrotation Xrotation Zrotation
				JOINT LeftToe
				{
					OFFSET -0.000001 12.539529 -6.151390
					CHANNELS 3 Yrotation Xrotation Zrotation
					End Site
					{
						OFFSET -0.000001 5.044994 -1.291870
					}
				}
			}
		}
	}
}
MOTION
Frames: 13
Frame Time: 0.016667
-52.645519 44.584091 77.037621 -1.636708 0.756360 -94.959833 -1.959987 -3.474467 -0.049586 -0.886746 -1.556016 -0.044801 -0.886746 -1.556015 -0.044801 -0.665132 -1.166950 -0.035857 5.557248 -22.235454 -7.672560 7.912730 -4.963170 -12.316971 8.242549 2.460790 -1.988562 47.280588 -18.350440 -10.950543 22.317604 -37.580609 45.383199 -27.465202 38.892941 67.841127 -7.349504 3.608668 -3.512785 -42.039647 -5.450612 13.556952 -39.484678 -58.133796 -22.423011 16.731549 13.988109 -57.410827 -3.656501 21.412723 -15.853837 15.311804 -41.848398 -19.017021 -7.650559 20.990478 9.167816 -0.524037 -0.234224 0.023568 -14.166112 31.588897 -26.466882 1.027374 -26.546551 5.071738 9.237490 -6.889743 8.681687 -0.635026 -0.736418 -0.073208 
-52.612602 44.584778 77.119148 -1.630667 0.826602 -94.847955 -1.981652 -3.428418 -0.074559 -0.890724 -1.532566 -0.057294 -0.890725 -1.532567 -0.057294 -0.668147 -1.149345 -0.045202 5.556353 -22.256141 -7.678801 7.910695 -5.001539 -12.328908 8.249917 2.461489 -1.991078 47.289255 -18.335283 -10.967776 22.316040 -37.546014 45.332874 -27.446072 38.863582 67.827556 -7.356508 3.600953 -3.509484 -42.044329 -5.463694 13.596636 -39.543503 -58.100881 -22.366202 16.706957 14.014187 -57.405896 -3.678566 21.291218 -15.836424 15.204126 -41.601344 -18.978003 -7.548769 20.880839 9.072756 -0.458876 -0.197605 0.018083 -13.747298 31.421636 -26.114651 0.893518 -26.553921 5.452399 9.281796 -6.535346 8.777311 -0.591128 -0.583669 -0.065698 
-52.593861 44.568748 77.209206 -1.596492 0.879338 -94.723413 -1.985904 -3.363549 -0.103685 -0.891231 -1.505363 -0.072098 -0.891231 -1.505363 -0.072098 -0.668563 -1.128920 -0.056267 5.553261 -22.273988 -7.690452 7.903039 -5.034772 -12.351180 8.253734 2.455859 -1.991159 47.298476 -18.304232 -10.989236 22.315814 -37.508278 45.289796 -27.415812 38.829834 67.815726 -7.364409 3.584300 -3.505007 -42.051368 -5.490264 13.630631 -39.585075 -58.068930 -22.320041 16.684846 14.051838 -57.401531 -3.697343 21.158273 -15.837870 15.124704 -41.288377 -18.910021 -7.515959 20.731439 9.000369 -0.379297 -0.159711 0.026446 -13.320626 31.268794 -25.741964 0.764149 -26.608247 5.720408 9.334794 -6.206870 8.903921 -0.576075 -0.407371 -0.056251 
-52.581055 44.549324 77.308678 -1.530443 0.922354 -94.585047 -1.982610 -3.279026 -0.142659 -0.887918 -1.469063 -0.088923 -0.887919 -1.469064 -0.088923 -0.666116 -1.101671 -0.068824 5.545122 -22.293058 -7.704138 7.885813 -5.070552 -12.378543 8.262093 2.459933 -1.981812 47.304333 -18.287903 -11.031356 22.306638 -37.469933 45.262349 -27.388382 38.803643 67.810466 -7.375914 3.555728 -3.498159 -42.051975 -5.507480 13.676186 -39.619144 -58.056519 -22.270008 16.661763 14.088470 -57.381977 -3.693154 21.031539 -15.877675 15.018001 -40.915012 -18.789511 -7.525352 20.533060 9.003375 -0.303711 -0.122120 0.029172 -12.901431 31.140438 -25.357491 0.661119 -26.725770 5.862963 9.377501 -5.868744 9.140967 -0.577903 -0.242518 -0.044261 
-52.583313 44.514648 77.415627 -1.443317 0.954609 -94.443799 -1.970430 -3.193799 -0.178516 -0.882973 -1.433742 -0.104045 -0.882974 -1.433743 -0.104045 -0.662440 -1.075159 -0.080102 5.540227 -22.297275 -7.720829 7.872678 -5.078635 -12.410131 8.277252 2.499468 -1.978435 47.309500 -18.290608 -11.085406 22.278612 -37.437667 45.247804 -27.354793 38.784020 67.809367 -7.386617 3.570820 -3.493004 -42.054817 -5.532365 13.730331 -39.669838 -58.053732 -22.185919 16.628847 14.118586 -57.344581 -3.660430 20.914067 -15.900293 14.930503 -40.487107 -18.636099 -7.614380 20.291211 8.891548 -0.220182 -0.082004 0.038378 -12.485599 31.016787 -24.958438 0.615443 -26.873950 5.935898 9.402298 -5.514308 9.391049 -0.597390 -0.102418 -0.032654 
-52.604973 44.456425 77.531120 -1.341237 0.983102 -94.307721 -1.948660 -3.102525 -0.209311 -0.877827 -1.398529 -0.117447 -0.877827 -1.398529 -0.117446 -0.658607 -1.048731 -0.090090 5.535013 -22.289942 -7.737764 7.858168 -5.065361 -12.442015 8.276313 2.498830 -1.977881 47.318803 -18.291289 -11.110865 22.247389 -37.415240 45.237695 -27.321947 38.783228 67.811812 -7.406739 3.591518 -3.488374 -42.049776 -5.548044 13.785664 -39.767871 -58.052230 -22.064610 16.591487 14.135103 -57.288697 -3.582862 20.800803 -15.871917 14.851656 -39.982193 -18.438733 -7.834857 19.977178 8.736444 -0.099558 -0.029897 0.054761 -12.083609 30.895705 -24.582754 0.619855 -27.036913 6.037198 9.434340 -5.195202 9.659127 -0.654314 0.040927 -0.020639 
-52.635250 44.388584 77.658295 -1.233917 1.023049 -94.170796 -1.933063 -3.031820 -0.242060 -0.874657 -1.369401 -0.129198 -0.874657 -1.369401 -0.129198 -0.656251 -1.026869 -0.098854 5.530863 -22.258103 -7.750532 7.845154 -5.006649 -12.465599 8.277429 2.501510 -1.953917 47.313786 -18.297956 -11.117844 22.250680 -37.386850 45.212741 -27.302221 38.799139 67.818116 -7.431971 3.640891 -3.470881 -42.040825 -5.566801 13.836458 -39.884275 -58.044416 -21.939987 16.542571 14.138091 -57.233403 -3.454932 20.683963 -15.851573 14.654318 -39.422438 -18.160754 -8.086515 19.623887 8.474200 0.033214 0.011610 0.058223 -11.720862 30.785473 -24.305016 0.610748 -27.232253 6.260079 9.479664 -4.874134 9.782383 -0.726138 0.176386 -0.010211 
-52.671219 44.313160 77.796188 -1.141507 1.071525 -94.032983 -1.927905 -2.989626 -0.274585 -0.873639 -1.348912 -0.140905 -0.873638 -1.348911 -0.140904 -0.655510 -1.011485 -0.107602 5.528820 -22.210006 -7.757483 7.836496 -4.917703 -12.477780 8.274549 2.518382 -1.931018 47.304046 -18.342480 -11.106267 22.288524 -37.343591 45.180906 -27.292058 38.805894 67.818683 -7.453317 3.690037 -3.464956 -42.040695 -5.560795 13.890941 -39.980178 -58.036780 -21.836854 16.498426 14.141771 -57.205262 -3.309713 20.553743 -15.792166 14.414807 -38.843047 -17.867754 -8.356999 19.237305 8.205523 0.169092 0.058533 0.055357 -11.388659 30.656184 -24.078427 0.592950 -27.458286 6.551371 9.537761 -4.558305 9.849739 -0.800706 0.313900 0.004184 
-52.709644 44.234116 77.945755 -1.058849 1.125274 -93.894474 -1.938519 -2.965077 -0.295150 -0.878422 -1.335788 -0.149934 -0.878422 -1.335787 -0.149934 -0.659115 -1.001629 -0.114367 5.540170 -22.154738 -7.766059 7.851080 -4.814751 -12.489028 8.292731 2.534384 -1.915809 47.290843 -18.389977 -11.078414 22.339307 -37.284937 45.145990 -27.284794 38.806526 67.811450 -7.447573 3.722045 -3.476483 -42.062053 -5.552348 13.925594 -40.015131 -58.024875 -21.779511 16.456055 14.171431 -57.210894 -3.143922 20.403879 -15.645122 14.202397 -38.201108 -17.637828 -8.679408 18.802594 7.908891 0.311583 0.113869 0.052151 -11.067205 30.495890 -23.834000 0.570323 -27.694942 6.830425 9.608170 -4.267594 10.043184 -0.863352 0.456552 0.022528 
-52.757420 44.148579 78.107018 -0.977988 1.184484 -93.755452 -1.963656 -2.944872 -0.310440 -0.886159 -1.325888 -0.158155 -0.886159 -1.325888 -0.158154 -0.664932 -0.994190 -0.120535 5.561738 -22.107316 -7.777007 7.883932 -4.725770 -12.501836 8.307844 2.537586 -1.922104 47.291499 -18.427299 -11.016620 22.373975 -37.230087 45.111357 -27.276799 38.798432 67.797127 -7.434229 3.728715 -3.484719 -42.077346 -5.569174 13.930329 -40.017262 -57.985997 -21.764140 16.421002 14.213546 -57.242398 -2.982166 20.237980 -15.442407 13.984542 -37.522457 -17.442761 -8.975228 18.329875 7.834989 0.429524 0.169507 0.047907 -10.752955 30.285605 -23.547192 0.555458 -27.898804 7.063017 9.673437 -3.961978 10.173981 -0.893389 0.578149 0.038919 
-52.785454 44.086681 78.279182 -0.910840 1.258715 -93.603344 -2.007458 -2.936883 -0.335153 -0.894934 -1.315389 -0.165252 -0.894933 -1.315389 -0.165253 -0.671527 -0.986303 -0.125860 5.585972 -22.077753 -7.793382 7.921227 -4.669732 -12.524053 8.317938 2.560530 -1.946237 47.302246 -18.458614 -10.963584 22.395862 -37.192299 45.082196 -27.270485 38.776012 67.781076 -7.434215 3.747781 -3.504612 -42.068764 -5.606904 13.953855 -39.994658 -57.951901 -21.783797 16.381468 14.280057 -57.279179 -2.845749 20.037178 -15.222262 13.781543 -36.810765 -17.325248 -9.205096 17.860974 7.731767 0.495510 0.209910 0.024115 -10.460153 29.995879 -23.251564 0.536194 -28.043951 7.254361 9.711590 -3.611231 10.188518 -0.871166 0.660188 0.053391 
-52.798553 44.029621 78.462555 -0.844822 1.313101 -93.453394 -2.031167 -2.921264 -0.357774 -0.900754 -1.300749 -0.171942 -0.900754 -1.300749 -0.171942 -0.675902 -0.975312 -0.130869 5.604484 -22.073206 -7.813854 7.948658 -4.660326 -12.555746 8.327188 2.574244 -1.956488 47.315937 -18.464626 -10.934038 22.399127 -37.154945 45.067787 -27.261382 38.754548 67.758598 -7.440636 3.776586 -3.507104 -42.056456 -5.641965 13.990897 -39.979351 -57.923262 -21.795713 16.343738 14.336584 -57.292890 -2.699535 19.779922 -15.017025 13.581292 -36.023323 -17.196915 -9.408276 17.377794 7.530563 0.530913 0.232423 0.011222 -10.147486 29.639681 -22.948133 0.502487 -28.135077 7.402130 9.734121 -3.259517 10.256507 -0.817697 0.727651 0.074876 
-52.798878 43.984859 78.655823 -0.762912 1.364988 -93.316285 -2.052052 -2.886997 -0.371613 -0.902966 -1.283027 -0.176275 -0.902966 -1.283027 -0.176275 -0.677566 -0.962013 -0.134097 5.615937 -22.083690 -7.836887 7.963601 -4.679148 -12.594367 8.334139 2.592848 -1.958281 47.330981 -18.467023 -10.937108 22.396358 -37.112833 45.066445 -27.241445 38.732066 67.734242 -7.441838 3.807325 -3.493915 -42.048741 -5.639429 14.027555 -39.989518 -57.909547 -21.780100 16.317296 14.366564 -57.275163 -2.559122 19.489187 -14.868953 13.338459 -35.179982 -17.009410 -9.555029 16.882655 7.437497 0.529928 0.236695 -0.003790 -9.818253 29.225065 -22.603002 0.483619 -28.159453 7.474543 9.725129 -2.962347 10.404982 -0.751377 0.830673 0.076677 
